<?xml version="1.0" encoding="UTF-8" standalone="no"?>
<!DOCTYPE svg PUBLIC "-//W3C//DTD SVG 1.1//EN"
 "http://www.w3.org/Graphics/SVG/1.1/DTD/svg11.dtd">
<!-- Generated by graphviz version 11.0.0 (0)
 -->
<!-- Title: dependency&#45;cruiser output Pages: 1 -->
<svg width="210pt" height="864pt"
 viewBox="0.00 0.00 210.00 864.00" xmlns="http://www.w3.org/2000/svg" xmlns:xlink="http://www.w3.org/1999/xlink">
<g id="graph0" class="graph" transform="scale(1 1) rotate(0) translate(4 860)">
<title>dependency&#45;cruiser output</title>
<polygon fill="white" stroke="none" points="-4,4 -4,-860 206,-860 206,4 -4,4"/>
<g id="clust1" class="cluster">
<title>cluster_lib</title>
<path fill="#ffffff" stroke="black" stroke-width="2" d="M105,-731C105,-731 151,-731 151,-731 157,-731 163,-737 163,-743 163,-743 163,-836 163,-836 163,-842 157,-848 151,-848 151,-848 105,-848 105,-848 99,-848 93,-842 93,-836 93,-836 93,-743 93,-743 93,-737 99,-731 105,-731"/>
<text text-anchor="middle" x="128" y="-835.45" font-family="Helvetica,sans-Serif" font-weight="bold" font-size="9.00">lib</text>
</g>
<g id="clust2" class="cluster">
<title>cluster_style</title>
<path fill="#ffffff" stroke="black" stroke-width="2" d="M105,-640C105,-640 151,-640 151,-640 157,-640 163,-646 163,-652 163,-652 163,-683 163,-683 163,-689 157,-695 151,-695 151,-695 105,-695 105,-695 99,-695 93,-689 93,-683 93,-683 93,-652 93,-652 93,-646 99,-640 105,-640"/>
<text text-anchor="middle" x="128" y="-682.45" font-family="Helvetica,sans-Serif" font-weight="bold" font-size="9.00">style</text>
</g>
<g id="clust3" class="cluster">
<title>cluster_widget</title>
<path fill="#ffffff" stroke="black" stroke-width="2" d="M74,-8C74,-8 182,-8 182,-8 188,-8 194,-14 194,-20 194,-20 194,-620 194,-620 194,-626 188,-632 182,-632 182,-632 74,-632 74,-632 68,-632 62,-626 62,-620 62,-620 62,-20 62,-20 62,-14 68,-8 74,-8"/>
<text text-anchor="middle" x="128" y="-619.45" font-family="Helvetica,sans-Serif" font-weight="bold" font-size="9.00">widget</text>
</g>
<g id="clust4" class="cluster">
<title>cluster_widget/applauncher</title>
<path fill="#ffffff" stroke="black" stroke-width="2" d="M95.12,-16C95.12,-16 160.88,-16 160.88,-16 166.88,-16 172.88,-22 172.88,-28 172.88,-28 172.88,-59 172.88,-59 172.88,-65 166.88,-71 160.88,-71 160.88,-71 95.12,-71 95.12,-71 89.12,-71 83.12,-65 83.12,-59 83.12,-59 83.12,-28 83.12,-28 83.12,-22 89.12,-16 95.12,-16"/>
<text text-anchor="middle" x="128" y="-58.45" font-family="Helvetica,sans-Serif" font-weight="bold" font-size="9.00">applauncher</text>
</g>
<g id="clust5" class="cluster">
<title>cluster_widget/bar</title>
<path fill="#ffffff" stroke="black" stroke-width="2" d="M91,-79C91,-79 165,-79 165,-79 171,-79 177,-85 177,-91 177,-91 177,-153 177,-153 177,-159 171,-165 165,-165 165,-165 91,-165 91,-165 85,-165 79,-159 79,-153 79,-153 79,-91 79,-91 79,-85 85,-79 91,-79"/>
<text text-anchor="middle" x="128" y="-152.45" font-family="Helvetica,sans-Serif" font-weight="bold" font-size="9.00">bar</text>
</g>
<g id="clust6" class="cluster">
<title>cluster_widget/datemenu</title>
<path fill="#ffffff" stroke="black" stroke-width="2" d="M101.12,-173C101.12,-173 154.88,-173 154.88,-173 160.88,-173 166.88,-179 166.88,-185 166.88,-185 166.88,-216 166.88,-216 166.88,-222 160.88,-228 154.88,-228 154.88,-228 101.12,-228 101.12,-228 95.12,-228 89.12,-222 89.12,-216 89.12,-216 89.12,-185 89.12,-185 89.12,-179 95.12,-173 101.12,-173"/>
<text text-anchor="middle" x="128" y="-215.45" font-family="Helvetica,sans-Serif" font-weight="bold" font-size="9.00">datemenu</text>
</g>
<g id="clust7" class="cluster">
<title>cluster_widget/dock</title>
<path fill="#ffffff" stroke="black" stroke-width="2" d="M94.75,-236C94.75,-236 161.25,-236 161.25,-236 167.25,-236 173.25,-242 173.25,-248 173.25,-248 173.25,-310 173.25,-310 173.25,-316 167.25,-322 161.25,-322 161.25,-322 94.75,-322 94.75,-322 88.75,-322 82.75,-316 82.75,-310 82.75,-310 82.75,-248 82.75,-248 82.75,-242 88.75,-236 94.75,-236"/>
<text text-anchor="middle" x="128" y="-309.45" font-family="Helvetica,sans-Serif" font-weight="bold" font-size="9.00">dock</text>
</g>
<g id="clust8" class="cluster">
<title>cluster_widget/notifications</title>
<path fill="#ffffff" stroke="black" stroke-width="2" d="M82,-330C82,-330 174,-330 174,-330 180,-330 186,-336 186,-342 186,-342 186,-373 186,-373 186,-379 180,-385 174,-385 174,-385 82,-385 82,-385 76,-385 70,-379 70,-373 70,-373 70,-342 70,-342 70,-336 76,-330 82,-330"/>
<text text-anchor="middle" x="128" y="-372.45" font-family="Helvetica,sans-Serif" font-weight="bold" font-size="9.00">notifications</text>
</g>
<g id="clust9" class="cluster">
<title>cluster_widget/powermenu</title>
<path fill="#ffffff" stroke="black" stroke-width="2" d="M98.12,-393C98.12,-393 157.88,-393 157.88,-393 163.88,-393 169.88,-399 169.88,-405 169.88,-405 169.88,-467 169.88,-467 169.88,-473 163.88,-479 157.88,-479 157.88,-479 98.12,-479 98.12,-479 92.12,-479 86.12,-473 86.12,-467 86.12,-467 86.12,-405 86.12,-405 86.12,-399 92.12,-393 98.12,-393"/>
<text text-anchor="middle" x="128" y="-466.45" font-family="Helvetica,sans-Serif" font-weight="bold" font-size="9.00">powermenu</text>
</g>
<g id="clust10" class="cluster">
<title>cluster_widget/quicksettings</title>
<path fill="#ffffff" stroke="black" stroke-width="2" d="M92.5,-487C92.5,-487 163.5,-487 163.5,-487 169.5,-487 175.5,-493 175.5,-499 175.5,-499 175.5,-530 175.5,-530 175.5,-536 169.5,-542 163.5,-542 163.5,-542 92.5,-542 92.5,-542 86.5,-542 80.5,-536 80.5,-530 80.5,-530 80.5,-499 80.5,-499 80.5,-493 86.5,-487 92.5,-487"/>
<text text-anchor="middle" x="128" y="-529.45" font-family="Helvetica,sans-Serif" font-weight="bold" font-size="9.00">quicksettings</text>
</g>
<g id="clust11" class="cluster">
<title>cluster_widget/settings</title>
<path fill="#ffffff" stroke="black" stroke-width="2" d="M91.38,-550C91.38,-550 164.62,-550 164.62,-550 170.62,-550 176.62,-556 176.62,-562 176.62,-562 176.62,-593 176.62,-593 176.62,-599 170.62,-605 164.62,-605 164.62,-605 91.38,-605 91.38,-605 85.38,-605 79.38,-599 79.38,-593 79.38,-593 79.38,-562 79.38,-562 79.38,-556 85.38,-550 91.38,-550"/>
<text text-anchor="middle" x="128" y="-592.45" font-family="Helvetica,sans-Serif" font-weight="bold" font-size="9.00">settings</text>
</g>
<!-- lib/init -->
<g id="node1" class="node">
<title>lib/init</title>
<g id="a_node1"><a xlink:title="init">
<path fill="#ffffcc" stroke="black" d="M148.58,-758.62C148.58,-758.62 107.42,-758.62 107.42,-758.62 104.21,-758.62 101,-755.42 101,-752.21 101,-752.21 101,-745.79 101,-745.79 101,-742.58 104.21,-739.38 107.42,-739.38 107.42,-739.38 148.58,-739.38 148.58,-739.38 151.79,-739.38 155,-742.58 155,-745.79 155,-745.79 155,-752.21 155,-752.21 155,-755.42 151.79,-758.62 148.58,-758.62"/>
<text text-anchor="start" x="120.88" y="-746.08" font-family="Helvetica,sans-Serif" font-size="9.00">init</text>
</a>
</g>
</g>
<!-- lib/session -->
<g id="node2" class="node">
<title>lib/session</title>
<g id="a_node2"><a xlink:title="session">
<path fill="#ffffcc" stroke="black" d="M148.58,-789.62C148.58,-789.62 107.42,-789.62 107.42,-789.62 104.21,-789.62 101,-786.42 101,-783.21 101,-783.21 101,-776.79 101,-776.79 101,-773.58 104.21,-770.38 107.42,-770.38 107.42,-770.38 148.58,-770.38 148.58,-770.38 151.79,-770.38 155,-773.58 155,-776.79 155,-776.79 155,-783.21 155,-783.21 155,-786.42 151.79,-789.62 148.58,-789.62"/>
<text text-anchor="start" x="111.88" y="-777.08" font-family="Helvetica,sans-Serif" font-size="9.00">session</text>
</a>
</g>
</g>
<!-- lib/utils -->
<g id="node3" class="node">
<title>lib/utils</title>
<g id="a_node3"><a xlink:title="utils">
<path fill="#ffffcc" stroke="black" d="M148.58,-820.62C148.58,-820.62 107.42,-820.62 107.42,-820.62 104.21,-820.62 101,-817.42 101,-814.21 101,-814.21 101,-807.79 101,-807.79 101,-804.58 104.21,-801.38 107.42,-801.38 107.42,-801.38 148.58,-801.38 148.58,-801.38 151.79,-801.38 155,-804.58 155,-807.79 155,-807.79 155,-814.21 155,-814.21 155,-817.42 151.79,-820.62 148.58,-820.62"/>
<text text-anchor="start" x="118.62" y="-808.08" font-family="Helvetica,sans-Serif" font-size="9.00">utils</text>
</a>
</g>
</g>
<!-- main.ts -->
<g id="node4" class="node">
<title>main.ts</title>
<g id="a_node4"><a xlink:href="main.ts" xlink:title="main.ts">
<path fill="#ddfeff" stroke="black" d="M47.58,-435.62C47.58,-435.62 6.42,-435.62 6.42,-435.62 3.21,-435.62 0,-432.42 0,-429.21 0,-429.21 0,-422.79 0,-422.79 0,-419.58 3.21,-416.38 6.42,-416.38 6.42,-416.38 47.58,-416.38 47.58,-416.38 50.79,-416.38 54,-419.58 54,-422.79 54,-422.79 54,-429.21 54,-429.21 54,-432.42 50.79,-435.62 47.58,-435.62"/>
<text text-anchor="middle" x="27" y="-423.07" font-family="Helvetica,sans-Serif" font-size="9.00">main.ts</text>
</a>
</g>
</g>
<!-- main.ts&#45;&gt;lib/init -->
<g id="edge1" class="edge">
<title>main.ts&#45;&gt;lib/init</title>
<path fill="none" stroke="#000000" stroke-width="2" stroke-opacity="0.200000" d="M27.71,-435.92C26.54,-482.95 23.92,-683.05 62,-729 69.43,-737.97 80.78,-742.99 91.94,-745.78"/>
<polygon fill="#000000" fill-opacity="0.200000" stroke="#000000" stroke-width="2" stroke-opacity="0.200000" points="91.49,-747.84 97.79,-746.97 92.33,-743.72 91.49,-747.84"/>
</g>
<!-- main.ts&#45;&gt;lib/session -->
<g id="edge2" class="edge">
<title>main.ts&#45;&gt;lib/session</title>
<path fill="none" stroke="#000000" stroke-width="2" stroke-opacity="0.200000" d="M28.32,-436.02C30.11,-489.47 39.67,-739.64 62,-765 69.49,-773.5 80.75,-777.7 91.8,-779.64"/>
<polygon fill="#000000" fill-opacity="0.200000" stroke="#000000" stroke-width="2" stroke-opacity="0.200000" points="91.33,-781.69 97.54,-780.36 91.86,-777.53 91.33,-781.69"/>
</g>
<!-- main.ts&#45;&gt;lib/utils -->
<g id="edge3" class="edge">
<title>main.ts&#45;&gt;lib/utils</title>
<path fill="none" stroke="#000000" stroke-width="2" stroke-opacity="0.200000" d="M28.23,-435.81C29.6,-491.66 37.6,-768.06 62,-796 69.45,-804.54 80.7,-808.74 91.76,-810.67"/>
<polygon fill="#000000" fill-opacity="0.200000" stroke="#000000" stroke-width="2" stroke-opacity="0.200000" points="91.29,-812.73 97.51,-811.4 91.82,-808.56 91.29,-812.73"/>
</g>
<!-- options -->
<g id="node5" class="node">
<title>options</title>
<g id="a_node5"><a xlink:title="options">
<path fill="#ffffcc" stroke="black" d="M148.58,-722.62C148.58,-722.62 107.42,-722.62 107.42,-722.62 104.21,-722.62 101,-719.42 101,-716.21 101,-716.21 101,-709.79 101,-709.79 101,-706.58 104.21,-703.38 107.42,-703.38 107.42,-703.38 148.58,-703.38 148.58,-703.38 151.79,-703.38 155,-706.58 155,-709.79 155,-709.79 155,-716.21 155,-716.21 155,-719.42 151.79,-722.62 148.58,-722.62"/>
<text text-anchor="middle" x="128" y="-710.08" font-family="Helvetica,sans-Serif" font-size="9.00">options</text>
</a>
</g>
</g>
<!-- main.ts&#45;&gt;options -->
<g id="edge4" class="edge">
<title>main.ts&#45;&gt;options</title>
<path fill="none" stroke="#000000" stroke-width="2" stroke-opacity="0.200000" d="M27.79,-435.83C27.04,-479.86 26.29,-658.43 62,-698 69.59,-706.41 80.88,-710.59 91.92,-712.53"/>
<polygon fill="#000000" fill-opacity="0.200000" stroke="#000000" stroke-width="2" stroke-opacity="0.200000" points="91.43,-714.59 97.65,-713.27 91.97,-710.42 91.43,-714.59"/>
</g>
<!-- style/style -->
<g id="node6" class="node">
<title>style/style</title>
<g id="a_node6"><a xlink:title="style">
<path fill="#ffffcc" stroke="black" d="M148.58,-667.62C148.58,-667.62 107.42,-667.62 107.42,-667.62 104.21,-667.62 101,-664.42 101,-661.21 101,-661.21 101,-654.79 101,-654.79 101,-651.58 104.21,-648.38 107.42,-648.38 107.42,-648.38 148.58,-648.38 148.58,-648.38 151.79,-648.38 155,-651.58 155,-654.79 155,-654.79 155,-661.21 155,-661.21 155,-664.42 151.79,-667.62 148.58,-667.62"/>
<text text-anchor="middle" x="128" y="-655.08" font-family="Helvetica,sans-Serif" font-size="9.00">style</text>
</a>
</g>
</g>
<!-- main.ts&#45;&gt;style/style -->
<g id="edge5" class="edge">
<title>main.ts&#45;&gt;style/style</title>
<path fill="none" stroke="#000000" stroke-width="2" stroke-opacity="0.200000" d="M27.48,-435.94C26.44,-464.85 26.72,-550.45 62,-608 71.02,-622.71 86.07,-634.7 99.42,-643.25"/>
<polygon fill="#000000" fill-opacity="0.200000" stroke="#000000" stroke-width="2" stroke-opacity="0.200000" points="98.22,-644.98 104.44,-646.3 100.4,-641.39 98.22,-644.98"/>
</g>
<!-- widget/applauncher/Applauncher -->
<g id="node7" class="node">
<title>widget/applauncher/Applauncher</title>
<g id="a_node7"><a xlink:title="Applauncher">
<path fill="#ffffcc" stroke="black" d="M158.46,-43.62C158.46,-43.62 97.54,-43.62 97.54,-43.62 94.33,-43.62 91.12,-40.42 91.12,-37.21 91.12,-37.21 91.12,-30.79 91.12,-30.79 91.12,-27.58 94.33,-24.38 97.54,-24.38 97.54,-24.38 158.46,-24.38 158.46,-24.38 161.67,-24.38 164.88,-27.58 164.88,-30.79 164.88,-30.79 164.88,-37.21 164.88,-37.21 164.88,-40.42 161.67,-43.62 158.46,-43.62"/>
<text text-anchor="start" x="99.12" y="-31.07" font-family="Helvetica,sans-Serif" font-size="9.00">Applauncher</text>
</a>
</g>
</g>
<!-- main.ts&#45;&gt;widget/applauncher/Applauncher -->
<g id="edge6" class="edge">
<title>main.ts&#45;&gt;widget/applauncher/Applauncher</title>
<path fill="none" stroke="#000000" stroke-width="2" stroke-opacity="0.200000" d="M27.83,-416.16C27.11,-365.61 25.88,-135.31 62,-76 69.34,-63.95 81.59,-54.72 93.49,-48.02"/>
<polygon fill="#000000" fill-opacity="0.200000" stroke="#000000" stroke-width="2" stroke-opacity="0.200000" points="94.19,-50.03 98.53,-45.39 92.24,-46.31 94.19,-50.03"/>
</g>
<!-- widget/bar/Bar -->
<g id="node8" class="node">
<title>widget/bar/Bar</title>
<g id="a_node8"><a xlink:title="Bar">
<path fill="#ffffcc" stroke="black" d="M148.58,-106.62C148.58,-106.62 107.42,-106.62 107.42,-106.62 104.21,-106.62 101,-103.42 101,-100.21 101,-100.21 101,-93.79 101,-93.79 101,-90.58 104.21,-87.38 107.42,-87.38 107.42,-87.38 148.58,-87.38 148.58,-87.38 151.79,-87.38 155,-90.58 155,-93.79 155,-93.79 155,-100.21 155,-100.21 155,-103.42 151.79,-106.62 148.58,-106.62"/>
<text text-anchor="start" x="120.5" y="-94.08" font-family="Helvetica,sans-Serif" font-size="9.00">Bar</text>
</a>
</g>
</g>
<!-- main.ts&#45;&gt;widget/bar/Bar -->
<g id="edge7" class="edge">
<title>main.ts&#45;&gt;widget/bar/Bar</title>
<path fill="none" stroke="#000000" stroke-width="2" stroke-opacity="0.200000" d="M28.4,-416.06C30.54,-365.17 41.3,-135.32 62,-112 69.52,-103.53 80.79,-99.34 91.84,-97.4"/>
<polygon fill="#000000" fill-opacity="0.200000" stroke="#000000" stroke-width="2" stroke-opacity="0.200000" points="91.89,-99.51 97.58,-96.67 91.36,-95.34 91.89,-99.51"/>
</g>
<!-- widget/bar/ScreenCorners -->
<g id="node9" class="node">
<title>widget/bar/ScreenCorners</title>
<g id="a_node9"><a xlink:title="ScreenCorners">
<path fill="#ffffcc" stroke="black" d="M162.58,-137.62C162.58,-137.62 93.42,-137.62 93.42,-137.62 90.21,-137.62 87,-134.42 87,-131.21 87,-131.21 87,-124.79 87,-124.79 87,-121.58 90.21,-118.38 93.42,-118.38 93.42,-118.38 162.58,-118.38 162.58,-118.38 165.79,-118.38 169,-121.58 169,-124.79 169,-124.79 169,-131.21 169,-131.21 169,-134.42 165.79,-137.62 162.58,-137.62"/>
<text text-anchor="start" x="95" y="-125.08" font-family="Helvetica,sans-Serif" font-size="9.00">ScreenCorners</text>
</a>
</g>
</g>
<!-- main.ts&#45;&gt;widget/bar/ScreenCorners -->
<g id="edge8" class="edge">
<title>main.ts&#45;&gt;widget/bar/ScreenCorners</title>
<path fill="none" stroke="#000000" stroke-width="2" stroke-opacity="0.200000" d="M28.23,-415.88C29.36,-373.68 35.37,-212.04 62,-170 69.55,-158.08 81.84,-148.87 93.71,-142.16"/>
<polygon fill="#000000" fill-opacity="0.200000" stroke="#000000" stroke-width="2" stroke-opacity="0.200000" points="94.4,-144.17 98.72,-139.52 92.44,-140.46 94.4,-144.17"/>
</g>
<!-- widget/datemenu/DateMenu -->
<g id="node10" class="node">
<title>widget/datemenu/DateMenu</title>
<g id="a_node10"><a xlink:title="DateMenu">
<path fill="#ffffcc" stroke="black" d="M152.46,-200.62C152.46,-200.62 103.54,-200.62 103.54,-200.62 100.33,-200.62 97.12,-197.42 97.12,-194.21 97.12,-194.21 97.12,-187.79 97.12,-187.79 97.12,-184.58 100.33,-181.38 103.54,-181.38 103.54,-181.38 152.46,-181.38 152.46,-181.38 155.67,-181.38 158.88,-184.58 158.88,-187.79 158.88,-187.79 158.88,-194.21 158.88,-194.21 158.88,-197.42 155.67,-200.62 152.46,-200.62"/>
<text text-anchor="start" x="105.12" y="-188.07" font-family="Helvetica,sans-Serif" font-size="9.00">DateMenu</text>
</a>
</g>
</g>
<!-- main.ts&#45;&gt;widget/datemenu/DateMenu -->
<g id="edge9" class="edge">
<title>main.ts&#45;&gt;widget/datemenu/DateMenu</title>
<path fill="none" stroke="#000000" stroke-width="2" stroke-opacity="0.200000" d="M28.71,-416.07C31.35,-381.05 41.59,-263.76 62,-233 69.86,-221.15 82.33,-211.92 94.25,-205.17"/>
<polygon fill="#000000" fill-opacity="0.200000" stroke="#000000" stroke-width="2" stroke-opacity="0.200000" points="94.96,-207.17 99.28,-202.51 93,-203.46 94.96,-207.17"/>
</g>
<!-- widget/dock/FloatingDock -->
<g id="node11" class="node">
<title>widget/dock/FloatingDock</title>
<g id="a_node11"><a xlink:title="FloatingDock">
<path fill="#ffffcc" stroke="black" d="M158.83,-263.62C158.83,-263.62 97.17,-263.62 97.17,-263.62 93.96,-263.62 90.75,-260.42 90.75,-257.21 90.75,-257.21 90.75,-250.79 90.75,-250.79 90.75,-247.58 93.96,-244.38 97.17,-244.38 97.17,-244.38 158.83,-244.38 158.83,-244.38 162.04,-244.38 165.25,-247.58 165.25,-250.79 165.25,-250.79 165.25,-257.21 165.25,-257.21 165.25,-260.42 162.04,-263.62 158.83,-263.62"/>
<text text-anchor="start" x="98.75" y="-251.07" font-family="Helvetica,sans-Serif" font-size="9.00">FloatingDock</text>
</a>
</g>
</g>
<!-- main.ts&#45;&gt;widget/dock/FloatingDock -->
<g id="edge10" class="edge">
<title>main.ts&#45;&gt;widget/dock/FloatingDock</title>
<path fill="none" stroke="#000000" stroke-width="2" stroke-opacity="0.200000" d="M28.79,-415.99C31.46,-384.79 41.14,-290.14 62,-269 67.38,-263.55 74.32,-259.91 81.65,-257.52"/>
<polygon fill="#000000" fill-opacity="0.200000" stroke="#000000" stroke-width="2" stroke-opacity="0.200000" points="82.16,-259.55 87.43,-256.01 81.1,-255.49 82.16,-259.55"/>
</g>
<!-- widget/dock/ToolBoxDock -->
<g id="node12" class="node">
<title>widget/dock/ToolBoxDock</title>
<g id="a_node12"><a xlink:title="ToolBoxDock">
<path fill="#ffffcc" stroke="black" d="M157.33,-294.62C157.33,-294.62 98.67,-294.62 98.67,-294.62 95.46,-294.62 92.25,-291.42 92.25,-288.21 92.25,-288.21 92.25,-281.79 92.25,-281.79 92.25,-278.58 95.46,-275.38 98.67,-275.38 98.67,-275.38 157.33,-275.38 157.33,-275.38 160.54,-275.38 163.75,-278.58 163.75,-281.79 163.75,-281.79 163.75,-288.21 163.75,-288.21 163.75,-291.42 160.54,-294.62 157.33,-294.62"/>
<text text-anchor="start" x="100.25" y="-282.07" font-family="Helvetica,sans-Serif" font-size="9.00">ToolBoxDock</text>
</a>
</g>
</g>
<!-- main.ts&#45;&gt;widget/dock/ToolBoxDock -->
<g id="edge11" class="edge">
<title>main.ts&#45;&gt;widget/dock/ToolBoxDock</title>
<path fill="none" stroke="#000000" stroke-width="2" stroke-opacity="0.200000" d="M29.24,-415.98C32.04,-396.86 40.39,-354.62 62,-327 71.03,-315.46 84.17,-306.12 96.28,-299.21"/>
<polygon fill="#000000" fill-opacity="0.200000" stroke="#000000" stroke-width="2" stroke-opacity="0.200000" points="97.09,-301.16 101.37,-296.46 95.09,-297.47 97.09,-301.16"/>
</g>
<!-- widget/notifications/NotificationPopups -->
<g id="node13" class="node">
<title>widget/notifications/NotificationPopups</title>
<g id="a_node13"><a xlink:title="NotificationPopups">
<path fill="#ffffcc" stroke="black" d="M171.58,-357.62C171.58,-357.62 84.42,-357.62 84.42,-357.62 81.21,-357.62 78,-354.42 78,-351.21 78,-351.21 78,-344.79 78,-344.79 78,-341.58 81.21,-338.38 84.42,-338.38 84.42,-338.38 171.58,-338.38 171.58,-338.38 174.79,-338.38 178,-341.58 178,-344.79 178,-344.79 178,-351.21 178,-351.21 178,-354.42 174.79,-357.62 171.58,-357.62"/>
<text text-anchor="start" x="86" y="-345.07" font-family="Helvetica,sans-Serif" font-size="9.00">NotificationPopups</text>
</a>
</g>
</g>
<!-- main.ts&#45;&gt;widget/notifications/NotificationPopups -->
<g id="edge12" class="edge">
<title>main.ts&#45;&gt;widget/notifications/NotificationPopups</title>
<path fill="none" stroke="#000000" stroke-width="2" stroke-opacity="0.200000" d="M36.36,-415.9C42.91,-408.32 52.48,-397.92 62,-390 74.2,-379.85 88.98,-370.13 101.36,-362.59"/>
<polygon fill="#000000" fill-opacity="0.200000" stroke="#000000" stroke-width="2" stroke-opacity="0.200000" points="102.43,-364.41 106.5,-359.53 100.27,-360.8 102.43,-364.41"/>
</g>
<!-- widget/powermenu/PowerMenu -->
<g id="node14" class="node">
<title>widget/powermenu/PowerMenu</title>
<g id="a_node14"><a xlink:title="PowerMenu">
<path fill="#ffffcc" stroke="black" d="M155.46,-420.62C155.46,-420.62 100.54,-420.62 100.54,-420.62 97.33,-420.62 94.12,-417.42 94.12,-414.21 94.12,-414.21 94.12,-407.79 94.12,-407.79 94.12,-404.58 97.33,-401.38 100.54,-401.38 100.54,-401.38 155.46,-401.38 155.46,-401.38 158.67,-401.38 161.88,-404.58 161.88,-407.79 161.88,-407.79 161.88,-414.21 161.88,-414.21 161.88,-417.42 158.67,-420.62 155.46,-420.62"/>
<text text-anchor="start" x="102.12" y="-408.07" font-family="Helvetica,sans-Serif" font-size="9.00">PowerMenu</text>
</a>
</g>
</g>
<!-- main.ts&#45;&gt;widget/powermenu/PowerMenu -->
<g id="edge13" class="edge">
<title>main.ts&#45;&gt;widget/powermenu/PowerMenu</title>
<path fill="none" stroke="#000000" stroke-width="2" stroke-opacity="0.200000" d="M54.27,-422.02C63.76,-420.58 74.72,-418.92 85.21,-417.33"/>
<polygon fill="#000000" fill-opacity="0.200000" stroke="#000000" stroke-width="2" stroke-opacity="0.200000" points="85.25,-419.45 90.87,-416.47 84.62,-415.3 85.25,-419.45"/>
</g>
<!-- widget/powermenu/Verification -->
<g id="node15" class="node">
<title>widget/powermenu/Verification</title>
<g id="a_node15"><a xlink:title="Verification">
<path fill="#ffffcc" stroke="black" d="M154.71,-451.62C154.71,-451.62 101.29,-451.62 101.29,-451.62 98.08,-451.62 94.88,-448.42 94.88,-445.21 94.88,-445.21 94.88,-438.79 94.88,-438.79 94.88,-435.58 98.08,-432.38 101.29,-432.38 101.29,-432.38 154.71,-432.38 154.71,-432.38 157.92,-432.38 161.12,-435.58 161.12,-438.79 161.12,-438.79 161.12,-445.21 161.12,-445.21 161.12,-448.42 157.92,-451.62 154.71,-451.62"/>
<text text-anchor="start" x="102.88" y="-439.07" font-family="Helvetica,sans-Serif" font-size="9.00">Verification</text>
</a>
</g>
</g>
<!-- main.ts&#45;&gt;widget/powermenu/Verification -->
<g id="edge14" class="edge">
<title>main.ts&#45;&gt;widget/powermenu/Verification</title>
<path fill="none" stroke="#000000" stroke-width="2" stroke-opacity="0.200000" d="M54.27,-430.25C63.94,-431.81 75.13,-433.62 85.8,-435.34"/>
<polygon fill="#000000" fill-opacity="0.200000" stroke="#000000" stroke-width="2" stroke-opacity="0.200000" points="85.34,-437.39 91.6,-436.28 86.01,-433.25 85.34,-437.39"/>
</g>
<!-- widget/quicksettings/QuickSettings -->
<g id="node16" class="node">
<title>widget/quicksettings/QuickSettings</title>
<g id="a_node16"><a xlink:title="QuickSettings">
<path fill="#ffffcc" stroke="black" d="M161.08,-514.62C161.08,-514.62 94.92,-514.62 94.92,-514.62 91.71,-514.62 88.5,-511.42 88.5,-508.21 88.5,-508.21 88.5,-501.79 88.5,-501.79 88.5,-498.58 91.71,-495.38 94.92,-495.38 94.92,-495.38 161.08,-495.38 161.08,-495.38 164.29,-495.38 167.5,-498.58 167.5,-501.79 167.5,-501.79 167.5,-508.21 167.5,-508.21 167.5,-511.42 164.29,-514.62 161.08,-514.62"/>
<text text-anchor="start" x="96.5" y="-502.07" font-family="Helvetica,sans-Serif" font-size="9.00">QuickSettings</text>
</a>
</g>
</g>
<!-- main.ts&#45;&gt;widget/quicksettings/QuickSettings -->
<g id="edge15" class="edge">
<title>main.ts&#45;&gt;widget/quicksettings/QuickSettings</title>
<path fill="none" stroke="#000000" stroke-width="2" stroke-opacity="0.200000" d="M31.5,-435.71C36.46,-448.13 46.64,-469.52 62,-482 67.36,-486.35 73.6,-489.91 80.05,-492.81"/>
<polygon fill="#000000" fill-opacity="0.200000" stroke="#000000" stroke-width="2" stroke-opacity="0.200000" points="79.13,-494.71 85.48,-495.01 80.71,-490.82 79.13,-494.71"/>
</g>
<!-- widget/settings/SettingsDialog -->
<g id="node17" class="node">
<title>widget/settings/SettingsDialog</title>
<g id="a_node17"><a xlink:title="SettingsDialog">
<path fill="#ffffcc" stroke="black" d="M162.21,-577.62C162.21,-577.62 93.79,-577.62 93.79,-577.62 90.58,-577.62 87.38,-574.42 87.38,-571.21 87.38,-571.21 87.38,-564.79 87.38,-564.79 87.38,-561.58 90.58,-558.38 93.79,-558.38 93.79,-558.38 162.21,-558.38 162.21,-558.38 165.42,-558.38 168.62,-561.58 168.62,-564.79 168.62,-564.79 168.62,-571.21 168.62,-571.21 168.62,-574.42 165.42,-577.62 162.21,-577.62"/>
<text text-anchor="start" x="95.38" y="-565.08" font-family="Helvetica,sans-Serif" font-size="9.00">SettingsDialog</text>
</a>
</g>
</g>
<!-- main.ts&#45;&gt;widget/settings/SettingsDialog -->
<g id="edge16" class="edge">
<title>main.ts&#45;&gt;widget/settings/SettingsDialog</title>
<path fill="none" stroke="#000000" stroke-width="2" stroke-opacity="0.200000" d="M27.94,-436.1C28.37,-458.67 32.57,-513.69 62,-545 66.73,-550.03 72.62,-553.96 78.92,-557.03"/>
<polygon fill="#000000" fill-opacity="0.200000" stroke="#000000" stroke-width="2" stroke-opacity="0.200000" points="77.92,-558.89 84.27,-559.3 79.56,-555.02 77.92,-558.89"/>
</g>
</g>
</svg>
